# xmcd
#
# Track frame offsets: 
#        150
#        18418
#        31463
#        42997
#        58877
#        74272
#        92290
#        108361
#        126640
#        160440
#        174024
#
# Disc length: 2551 seconds
#
# Revision: 1
# Processed by: cddbd v1.5.2PL0 Copyright (c) Steve Scherf et al.
# Submitted via: ExactAudioCopy v0.99pb5
#
DISCID=9009f50b
DTITLE=Cynthia McCorkindale - Bistro Blue
DYEAR=2005
DGENRE=Blues
TTITLE0=La Mer
TTITLE1=La Vie En Rose
TTITLE2=Vous Qui Passez Sans Me Voir
TTITLE3=Que Reste-t-il De Nos Amours
TTITLE4=Sous Le Ciel De Paris
TTITLE5=Les Feuilles Mortes
TTITLE6=C'est Si Bon
TTITLE7=After You've Gone
TTITLE8=J'attendrai-Je Suis Seule Ce Soir
TTITLE9=Padam Padam
TTITLE10=Nuit Et Jour (Night and Day)
EXTD=YEAR: 2005
EXTT0=
EXTT1=
EXTT2=
EXTT3=
EXTT4=
EXTT5=
EXTT6=
EXTT7=
EXTT8=
EXTT9=
EXTT10=
PLAYORDER=
